<mxfile host="app.diagrams.net" modified="2023-07-26T07:55:51.928Z" agent="Mozilla/5.0 (Macintosh; Intel Mac OS X 10_15_7) AppleWebKit/537.36 (KHTML, like Gecko) Chrome/114.0.0.0 Safari/537.36" etag="2BP7wlbYcwhgySDl9rTJ" version="21.6.3" type="github">
  <diagram name="Page-1" id="49W-GlGzN48-pn9GzV39">
    <mxGraphModel dx="1121" dy="625" grid="1" gridSize="10" guides="1" tooltips="1" connect="1" arrows="1" fold="1" page="1" pageScale="1" pageWidth="850" pageHeight="1100" math="0" shadow="0">
      <root>
        <mxCell id="0" />
        <mxCell id="1" parent="0" />
        <mxCell id="FY5CL1bqaTMWNdvwRy-g-1" value="" style="rounded=1;whiteSpace=wrap;html=1;fillColor=#dae8fc;strokeColor=#6c8ebf;" vertex="1" parent="1">
          <mxGeometry x="40" y="320" width="720" height="80" as="geometry" />
        </mxCell>
        <mxCell id="FY5CL1bqaTMWNdvwRy-g-2" value="" style="rounded=0;whiteSpace=wrap;html=1;" vertex="1" parent="1">
          <mxGeometry x="70" y="340" width="40" height="40" as="geometry" />
        </mxCell>
        <mxCell id="FY5CL1bqaTMWNdvwRy-g-4" value="" style="rounded=0;whiteSpace=wrap;html=1;" vertex="1" parent="1">
          <mxGeometry x="130" y="340" width="40" height="40" as="geometry" />
        </mxCell>
      </root>
    </mxGraphModel>
  </diagram>
</mxfile>
